{"title":"Straight Outta Tompkins 2015 HDRIP x264 AC3 TiTAN","uid":11890373,"size":1413314488,"categoryP":"video","categoryS":"movies","magnet":"?xt=urn:btih:c53ea84405a208d846e5df27f5eac86cbc7669e2&amp;dn=Straight+Outta+Tompkins+2015+HDRIP+x264+AC3+TiTAN&amp;tr=udp%3A%2F%2Ftracker.openbittorrent.com%3A80&amp;tr=udp%3A%2F%2Fopen.demonii.com%3A1337&amp;tr=udp%3A%2F%2Ftracker.coppersurfer.tk%3A6969&amp;tr=udp%3A%2F%2Fexodus.desync.com%3A6969","seeders":12,"leechers":4,"uploader":"xxxlavalxxx","files":3,"time":1430980620,"description":" &lt;a href=&quot;http://extraimago.com/image/2W7&quot; rel=&quot;nofollow&quot; target=&quot;_NEW&quot;&gt;http://extraimago.com/image/2W7&lt;/a&gt;\n &lt;a href=&quot;\nhttp://www.imdb.com/title/tt2815720/&quot; rel=&quot;nofollow&quot; target=&quot;_NEW&quot;&gt;\nhttp://www.imdb.com/title/tt2815720/&lt;/a&gt;\n\n\nA forlorn teenager abandoned in New York City spirals out of control, from a troubled kid to an accidental addict, after he mistakes the welcoming embrace of a Lower East Side drug dealer for the love of family. Offering a humorous take on the absurdity of the junky lifestyle, STRAIGHT OUTTA TOMPKINS also presents a fearlessly honest portrayal of the violence and danger that come with teen drug use.\n\nDirector: Zephyr Benson\nWriter: Zephyr Benson\nStars: Zephyr Benson, Aaron Costa Ganis, Jon McCormick\nGenres: Drama\nCountry: USA\nLanguage: English\n\n\nFormat                                   : Matroska\nFormat version                           : Version 2\nFile size                                : 1.32 GiB\nDuration                                 : 1h 32mn\nOverall bit rate mode                    : Variable\nOverall bit rate                         : 2 029 Kbps\nEncoded date                             : UTC 2015-04-02 18:01:20\n\n\nVideo\nID                                       : 1\nFormat                                   : AVC\nFormat/Info                              : Advanced Video Codec\nFormat profile                           : &lt;a class=&quot;__cf_email__&quot; href=&quot;/cdn-cgi/l/email-protection&quot; data-cfemail=&quot;c880a1afa08884fce6f9&quot;&gt;[email&amp;#160;protected]&lt;/a&gt;&lt;script cf-hash='f9e31' type=&quot;text/javascript&quot;&gt;\n/* &lt;![CDATA[ */!function(){try{var t=&quot;currentScript&quot;in document?document.currentScript:function(){for(var t=document.getElementsByTagName(&quot;script&quot;),e=t.length;e--;)if(t[e].getAttribute(&quot;cf-hash&quot;))return t[e]}();if(t&amp;&amp;t.previousSibling){var e,r,n,i,c=t.previousSibling,a=c.getAttribute(&quot;data-cfemail&quot;);if(a){for(e=&quot;&quot;,r=parseInt(a.substr(0,2),16),n=2;a.length-n;n+=2)i=parseInt(a.substr(n,2),16)^r,e+=String.fromCharCode(i);e=document.createTextNode(e),c.parentNode.replaceChild(e,c)}}}catch(u){}}();/* ]]&gt; */&lt;/script&gt;\nFormat settings, CABAC                   : Yes\nFormat settings, ReFrames                : 3 frames\nCodec ID                                 : V_MPEG4/ISO/AVC\nDuration                                 : 1h 32mn\nBit rate mode                            : Variable\nBit rate                                 : 1 605 Kbps\nMaximum bit rate                         : 40.0 Mbps\nWidth                                    : 720 pixels\nHeight                                   : 400 pixels\nDisplay aspect ratio                     : 16:9\nFrame rate mode                          : Constant\nFrame rate                               : 23.976 fps\nColor space                              : YUV\nChroma subsampling                       : 4:2:0\nBit depth                                : 8 bits\nScan type                                : Progressive\nBits/(Pixel*Frame)                       : 0.232\nStream size                              : 1.04 GiB (79%)\nDefault                                  : Yes\nForced                                   : No\nColor primaries                          : BT.709\nTransfer characteristics                 : BT.709\nMatrix coefficients                      : BT.709\n\nAudio\nID                                       : 2\nFormat                                   : AC-3\nFormat/Info                              : Audio Coding 3\nMode extension                           : CM (complete main)\nFormat settings, Endianness              : Big\nCodec ID                                 : A_AC3\nDuration                                 : 1h 32mn\nBit rate mode                            : Constant\nBit rate                                 : 384 Kbps\nChannel(s)                               : 6 channels\nChannel positions                        : Front: L C R, Side: L R, LFE\nSampling rate                            : 48.0 KHz\nBit depth                                : 16 bits\nCompression mode                         : Lossy\nStream size                              : 255 MiB (19%)\nLanguage                                 : English\nDefault                                  : Yes\nForced                                   : No\n\n &lt;a href=&quot;\nhttp://extraimago.com/image/2Wc&quot; rel=&quot;nofollow&quot; target=&quot;_NEW&quot;&gt;\nhttp://extraimago.com/image/2Wc&lt;/a&gt; &lt;a href=&quot;\nhttp://extraimago.com/image/2W1&quot; rel=&quot;nofollow&quot; target=&quot;_NEW&quot;&gt;\nhttp://extraimago.com/image/2W1&lt;/a&gt; &lt;a href=&quot;\nhttp://extraimago.com/image/2WE&quot; rel=&quot;nofollow&quot; target=&quot;_NEW&quot;&gt;\nhttp://extraimago.com/image/2WE&lt;/a&gt; &lt;a href=&quot;\nhttp://extraimago.com/image/2WO&quot; rel=&quot;nofollow&quot; target=&quot;_NEW&quot;&gt;\nhttp://extraimago.com/image/2WO&lt;/a&gt; &lt;a href=&quot;\nhttp://extraimago.com/image/2WS&quot; rel=&quot;nofollow&quot; target=&quot;_NEW&quot;&gt;\nhttp://extraimago.com/image/2WS&lt;/a&gt;","torrent":{"xt":"urn:btih:c53ea84405a208d846e5df27f5eac86cbc7669e2","amp;dn":"Straight+Outta+Tompkins+2015+HDRIP+x264+AC3+TiTAN","amp;tr":["udp%3A%2F%2Ftracker.openbittorrent.com%3A80","udp%3A%2F%2Fopen.demonii.com%3A1337","udp%3A%2F%2Ftracker.coppersurfer.tk%3A6969","udp%3A%2F%2Fexodus.desync.com%3A6969"],"infoHash":"c53ea84405a208d846e5df27f5eac86cbc7669e2","infoHashBuffer":{"type":"Buffer","data":[197,62,168,68,5,162,8,216,70,229,223,39,245,234,200,108,188,118,105,226]},"announce":[],"urlList":[]}}